<svg xmlns="http://www.w3.org/2000/svg" viewBox="0 0 100 100"><defs><linearGradient gradientUnits="userSpaceOnUse" x1="172.394" y1="-238.763" x2="172.394" y2="1293.866" id="gradient-0" gradientTransform="matrix(0.046137, -0.046137, 0.046137, 0.046137, 17.706656, 33.614005)"><stop offset="0" style="stop-color: rgb(41.176% 73.725% 93.333%)"/><stop offset="1" style="stop-color: rgb(0% 43.867% 61.79%)"/></linearGradient></defs><ellipse style="fill: url(&quot;#gradient-0&quot;); transform-box: fill-box; transform-origin: 50% 50%;" cx="50" cy="50" rx="50" ry="50"/><path fill="#fff" d="M 20.623 59.536 C 18.467 61.09 19.042 63.927 23.944 65.389 C 28.924 67.073 34.358 67.533 39.641 66.615 C 39.943 66.615 40.245 66.462 40.396 66.462 L 40.396 61.22 L 35.336 63.072 C 33.374 63.685 31.267 63.79 29.377 63.246 C 28.024 62.763 28.434 62.012 30.246 61.247 L 40.396 57.621 L 40.396 51.739 L 25.99 56.911 C 24.179 57.524 22.283 58.31 20.623 59.536 Z"/><path d="M 56.096 36.628 L 56.096 51.48 C 62.408 54.542 67.333 51.48 67.333 43.518 C 67.333 35.403 64.409 31.729 55.943 28.82 C 51.478 27.289 46.861 25.91 42.243 24.992 L 42.243 69.24 L 52.328 72.579 L 52.328 35.374 C 52.328 33.69 53.034 32.547 54.265 33.006 C 55.958 33.465 56.096 34.944 56.096 36.628 Z" fill="#fff"/><path d="M 75.59 55.957 C 71.091 54.388 65.889 53.932 61.724 54.474 C 59.19 54.803 56.848 55.273 54.542 56.048 L 54.067 56.218 L 54.067 62.345 L 64.18 58.725 C 66.202 58.113 68.158 57.675 70.181 58.135 C 72.615 58.81 71.466 59.716 69.626 60.346 L 54.067 65.943 L 54.067 71.883 L 75.538 64.074 C 77.095 63.462 78.611 62.697 79.855 61.472 C 81.163 59.902 80.915 57.733 75.59 55.957 Z" fill="#fff"/></svg>